<svg width="25" height="24" viewBox="0 0 25 24" fill="none" xmlns="http://www.w3.org/2000/svg">
<g id="Provider Icon">
<rect width="24" height="24" rx="5" fill="white"/>
<path id="Vector" d="M7.94188 19.1919C3.73806 19.1919 0.375 15.8288 0.375 11.625C0.375 7.42116 3.73806 4.05811 7.94188 4.05811H16.8081C21.0119 4.05811 24.375 7.42116 24.375 11.625C24.375 15.8288 21.0119 19.1919 16.8081 19.1919H7.94188ZM16.5788 16.5167C19.3304 16.5167 21.4705 14.3001 21.4705 11.625C21.4705 8.87339 19.254 6.73326 16.5788 6.73326H8.17118C5.41959 6.73326 3.27946 8.94982 3.27946 11.625C3.27946 14.3001 5.49602 16.5167 8.17118 16.5167H16.5788Z" fill="#C74634"/>
</g>
</svg>
