<svg width="25" height="24" viewBox="0 0 25 24" fill="none" xmlns="http://www.w3.org/2000/svg">
<g id="port">
<path id="vector" d="M20.5142 2H4.81104C4.21208 2 3.70426 2.20833 3.2876 2.625C2.87093 3.04167 2.6626 3.54948 2.6626 4.14844V19.8516C2.6626 20.4505 2.87093 20.9583 3.2876 21.375C3.70426 21.7917 4.21208 22 4.81104 22H20.5142C21.1131 22 21.6209 21.7917 22.0376 21.375C22.4543 20.9583 22.6626 20.4505 22.6626 19.8516V4.14844C22.6626 3.54948 22.4543 3.04167 22.0376 2.625C21.6209 2.20833 21.1131 2 20.5142 2ZM18.6782 13.1328C18.6782 13.237 18.6392 13.3281 18.561 13.4062C18.509 13.4844 18.4308 13.5234 18.3267 13.5234H17.1938V14.6172C17.1938 14.7214 17.1548 14.8125 17.0767 14.8906C16.9985 14.9688 16.9074 15.0078 16.8032 15.0078H15.6704V16.1406C15.6704 16.2448 15.6313 16.3359 15.5532 16.4141C15.4751 16.4922 15.397 16.5312 15.3188 16.5312H10.0454C9.94124 16.5312 9.8501 16.4922 9.77197 16.4141C9.69385 16.3359 9.65479 16.2448 9.65479 16.1406V15.0078H8.52197C8.41781 15.0078 8.32666 14.9688 8.24854 14.8906C8.17041 14.8125 8.13135 14.7214 8.13135 14.6172V13.5234H7.0376C6.93343 13.5234 6.84229 13.4844 6.76416 13.4062C6.68604 13.3281 6.64697 13.237 6.64697 13.1328V7.85938C6.64697 7.75521 6.68604 7.66406 6.76416 7.58594C6.84229 7.50781 6.93343 7.46875 7.0376 7.46875H18.3267C18.4308 7.46875 18.509 7.50781 18.561 7.58594C18.6392 7.66406 18.6782 7.75521 18.6782 7.85938V13.1328Z" fill="#2A303C"/>
</g>
</svg>
